<?xml version="1.0" standalone="no"?>
<!DOCTYPE svg PUBLIC "-//W3C//DTD SVG 20010904//EN"
 "http://www.w3.org/TR/2001/REC-SVG-20010904/DTD/svg10.dtd">
<svg version="1.0" xmlns="http://www.w3.org/2000/svg"
 width="1472.000000pt" height="832.000000pt" viewBox="0 0 1472.000000 832.000000"
 preserveAspectRatio="xMidYMid meet">

<g transform="translate(0.000000,832.000000) scale(0.100000,-0.100000)"
fill="#FFFFFF" stroke="none">
<path d="M2923 4973 l-473 -3 0 -844 c0 -760 2 -844 16 -850 9 -3 188 -6 399
-6 340 0 384 2 389 16 11 28 6 52 -11 58 -9 4 -172 6 -362 6 l-346 -2 -3 511
-2 511 742 -2 743 -3 3 -507 2 -508 -352 -2 -353 -3 0 -40 0 -40 53 0 c28 1
203 2 387 3 l335 2 0 850 0 850 -243 0 c-134 0 -291 1 -348 3 -57 2 -317 2
-576 0z m1092 -303 l0 -225 -743 0 -743 0 -4 220 c-2 120 -1 223 1 227 3 5
339 7 747 6 l742 -3 0 -225z"/>
<path d="M3063 4782 c-7 -4 -24 -33 -38 -65 -15 -31 -30 -57 -33 -57 -4 0 -18
27 -30 60 -20 50 -28 60 -47 60 l-24 0 21 -47 c11 -27 31 -73 43 -103 13 -30
29 -55 35 -55 11 0 100 186 100 207 0 10 -11 10 -27 0z"/>
<path d="M2700 4675 l0 -105 61 0 c52 0 60 2 57 18 -2 10 -14 18 -33 20 -16 2
-33 9 -37 15 -10 17 11 37 39 37 35 0 27 34 -10 38 -19 2 -27 9 -27 22 0 14 9
20 37 22 27 2 39 8 41 21 3 15 -5 17 -62 17 l-66 0 0 -105z"/>
<path d="M3162 4678 l3 -103 58 -3 c51 -3 57 -1 57 17 0 16 -8 20 -37 23 -30
2 -38 7 -38 23 0 16 7 20 30 20 23 0 30 4 30 20 0 14 -8 21 -30 25 -45 8 -39
34 10 40 27 3 40 10 40 20 0 11 -15 16 -63 18 l-63 3 3 -103z"/>
<path d="M3377 4773 c-10 -10 -8 -176 2 -192 12 -19 41 -6 39 16 0 10 0 36 0
57 l2 39 25 -23 c13 -12 36 -40 51 -61 45 -65 54 -54 54 66 0 98 -1 105 -20
105 -16 0 -20 -7 -21 -37 -1 -78 -10 -80 -63 -19 -47 56 -56 62 -69 49z"/>
<path d="M3642 4763 c2 -11 14 -19 31 -21 l27 -3 0 -85 c0 -81 1 -85 21 -82
20 3 22 10 23 83 1 79 1 80 29 83 19 2 27 9 27 23 0 17 -8 19 -81 19 -71 0
-80 -2 -77 -17z"/>
<path d="M4150 4453 c0 -285 3 -668 6 -850 l7 -333 39 0 38 0 0 698 c0 383 -4
702 -8 707 -4 6 -19 18 -34 28 -35 22 -35 35 -3 43 37 9 45 32 45 133 l0 91
-45 0 -44 0 -1 -517z"/>
<path d="M10667 4903 c-2 -5 -1 -163 2 -353 l6 -345 274 0 273 0 29 35 29 34
110 -109 111 -110 82 86 c45 47 94 96 109 109 l27 23 46 -42 c29 -26 52 -40
61 -37 9 3 49 6 90 6 72 0 74 1 74 25 0 25 -1 25 -82 25 l-82 0 -156 155 c-86
85 -161 155 -167 155 -10 0 -215 -187 -286 -262 -29 -30 -43 -39 -60 -34 -21
5 -66 5 -312 2 l-110 -1 -3 292 -2 293 202 2 203 3 0 25 0 25 -232 3 c-127 1
-233 -1 -236 -5z m916 -505 c36 -40 68 -76 72 -80 8 -8 -118 -144 -149 -160
-16 -8 -30 2 -92 68 -40 44 -73 83 -74 89 0 16 143 155 161 155 9 0 46 -33 82
-72z"/>
<path d="M11490 4821 c0 -49 3 -92 8 -94 4 -3 17 -1 30 4 22 8 23 13 20 91 -3
82 -3 83 -30 86 l-28 3 0 -90z"/>
<path d="M9367 4766 c-69 -19 -117 -62 -154 -136 -27 -53 -34 -81 -39 -157 -6
-75 -10 -93 -23 -94 -9 -1 -20 -2 -26 -4 -5 -1 -20 -3 -32 -3 -22 -2 -23 -6
-23 -76 l0 -75 48 -3 47 -3 3 -297 2 -298 94 0 c89 0 94 1 100 23 3 12 6 147
6 300 l0 277 84 0 c47 0 87 4 91 10 3 5 3 39 -1 75 l-7 65 -68 0 c-100 0 -99
-1 -99 94 0 92 13 125 54 145 29 13 55 11 131 -14 17 -5 27 5 59 61 38 64 39
67 21 80 -48 35 -193 51 -268 30z"/>
<path d="M10825 4705 c-58 -57 -15 -145 71 -145 34 0 47 5 63 26 30 38 27 80
-8 115 -38 38 -91 40 -126 4z"/>
<path d="M8783 4705 c-70 -30 -89 -123 -35 -177 73 -74 202 -23 202 80 0 37
-34 80 -76 98 -41 17 -50 17 -91 -1z"/>
<path d="M4675 4678 c-3 -7 -4 -247 -3 -533 l3 -520 338 -3 337 -2 0 85 0 85
-237 2 -238 3 -3 137 -3 138 233 2 233 3 3 83 3 82 -220 0 c-121 0 -226 3
-235 6 -13 5 -16 27 -16 135 l0 129 240 0 241 0 -3 88 -3 87 -333 3 c-261 2
-334 0 -337 -10z"/>
<path d="M8206 4594 c-3 -9 -6 -60 -6 -115 l0 -99 -54 0 c-35 0 -56 -5 -59
-13 -3 -7 -3 -43 0 -80 l6 -66 51 -3 51 -3 5 -235 c5 -219 7 -238 27 -277 15
-28 39 -52 70 -70 42 -25 58 -28 133 -28 100 0 167 25 162 60 -2 11 -5 45 -7
75 -1 30 -3 56 -4 58 -1 1 -14 -4 -31 -13 -42 -22 -106 -19 -129 4 -28 28 -32
65 -29 256 l3 170 88 3 87 3 0 74 0 75 -84 0 c-67 0 -85 3 -90 16 -3 9 -6 63
-6 120 l0 104 -89 0 c-72 0 -90 -3 -95 -16z"/>
<path d="M6583 4385 c-104 -32 -194 -108 -246 -210 -31 -58 -32 -65 -32 -180
0 -142 14 -183 91 -266 63 -67 116 -96 205 -115 125 -26 262 -3 370 62 89 54
92 60 39 106 -83 73 -85 74 -119 45 -51 -42 -111 -60 -194 -56 -95 5 -141 34
-182 111 -48 92 -59 88 275 88 l290 0 0 33 c0 92 -33 193 -87 264 -34 44 -119
99 -182 117 -65 19 -170 20 -228 1z m214 -162 c39 -18 93 -85 93 -115 0 -10
-1 -18 -2 -19 -2 0 -90 -2 -195 -5 -185 -5 -193 -4 -193 14 0 25 50 93 86 117
58 38 142 41 211 8z"/>
<path d="M7570 4384 c-25 -9 -66 -31 -93 -50 -26 -19 -49 -34 -51 -34 -3 0 -6
17 -8 38 -3 37 -3 37 -53 40 -27 2 -69 1 -92 -3 l-43 -6 0 -375 0 -374 100 0
100 0 0 245 c0 274 4 292 67 335 49 34 153 40 203 12 71 -39 75 -56 78 -339
l4 -253 94 0 94 0 0 254 c0 229 -2 261 -21 322 -17 57 -30 78 -72 119 -58 56
-105 75 -202 81 -39 3 -76 -1 -105 -12z"/>
<path d="M5398 4375 c-5 -5 3 -27 16 -49 13 -23 101 -193 196 -378 l172 -338
46 0 c26 0 52 4 58 8 7 4 95 175 198 380 l186 372 -104 0 c-97 0 -105 -2 -118
-22 -13 -22 -158 -337 -193 -422 -9 -21 -20 -35 -25 -30 -4 5 -54 110 -109
234 -56 123 -105 228 -109 232 -11 11 -205 22 -214 13z"/>
<path d="M8757 4372 c-16 -3 -17 -34 -17 -378 l0 -374 95 0 95 0 -2 377 -3
377 -76 1 c-41 0 -83 -1 -92 -3z"/>
<path d="M9590 4365 c0 -8 63 -137 139 -287 76 -150 142 -283 146 -296 7 -23
-60 -180 -161 -384 -24 -48 -44 -90 -44 -93 0 -3 44 -5 99 -5 l98 0 91 193
c50 105 152 317 226 469 134 275 197 407 193 409 -1 1 -44 2 -96 3 -84 2 -94
0 -106 -18 -7 -12 -50 -103 -96 -204 -46 -100 -87 -181 -93 -179 -5 2 -49 91
-99 199 -102 222 -87 208 -223 208 -59 0 -74 -3 -74 -15z"/>
<path d="M3615 4121 c-27 -21 -130 -122 -228 -225 -98 -102 -185 -186 -192
-186 -7 0 -50 41 -96 92 -100 109 -151 148 -193 148 -38 0 -96 -34 -96 -56 0
-9 86 -106 192 -216 l192 -200 90 94 c49 51 180 184 290 296 l201 203 -47 45
c-26 24 -50 44 -55 44 -4 0 -30 -18 -58 -39z"/>
<path d="M11151 4083 c5 -16 31 -54 56 -87 53 -69 53 -69 -30 -158 -90 -98
-177 -211 -177 -230 0 -34 28 -18 103 57 42 41 80 75 86 75 6 0 11 6 11 13 0
6 36 51 80 99 90 97 101 128 46 128 -37 0 -69 25 -120 93 -16 20 -37 37 -47
37 -16 0 -17 -4 -8 -27z"/>
<path d="M11599 4020 c-15 -4 -35 -16 -46 -26 -10 -11 -29 -26 -42 -34 -20
-13 -22 -21 -16 -48 7 -36 36 -43 71 -17 10 8 22 15 26 15 3 0 45 -47 91 -103
47 -57 124 -143 171 -192 73 -75 88 -86 101 -75 8 7 15 17 15 22 0 16 -81 116
-204 251 -64 70 -116 132 -116 137 0 5 5 12 10 15 17 10 11 44 -9 55 -11 5
-21 10 -23 9 -2 0 -15 -4 -29 -9z"/>
<path d="M10649 3894 c-16 -19 -2 -595 14 -606 15 -9 561 -10 745 -2 l143 7
-3 126 -3 126 -27 3 -27 3 -3 -98 -3 -98 -387 -3 -388 -2 -2 271 c-3 269 -3
272 -25 280 -15 5 -25 3 -34 -7z"/>
<path d="M12208 3628 l-3 -273 -170 -5 c-127 -4 -170 -8 -169 -17 4 -45 -7
-43 204 -43 l200 0 0 305 0 305 -30 0 -30 0 -2 -272z"/>
<path d="M10826 3569 c-20 -16 -26 -29 -26 -59 0 -91 128 -109 161 -23 13 34
-12 78 -52 92 -44 15 -52 14 -83 -10z"/>
<path d="M12016 3559 c-54 -42 -21 -129 49 -129 37 0 75 35 75 69 0 28 -51 81
-78 81 -11 0 -31 -9 -46 -21z"/>
</g>
</svg>
